<svg width="78" height="78" viewBox="0 0 78 78" fill="none" xmlns="http://www.w3.org/2000/svg">
<g id="017-calendar" clip-path="url(#clip0_8_1074)">
<path id="Vector" d="M28.0067 77.2521H18.8906C9.0022 77.2521 0.957336 69.1408 0.957336 59.1708V34.4596C0.957336 24.4895 9.0022 16.3782 18.8906 16.3782H59.5394C69.4278 16.3782 77.4726 24.4895 77.4726 34.4596V43.5003C77.4726 45.1646 76.1345 46.5138 74.4837 46.5138C72.833 46.5138 71.4949 45.1646 71.4949 43.5003V34.4596C71.4949 27.8129 66.1316 22.4053 59.5394 22.4053H18.8906C12.2983 22.4053 6.93509 27.8129 6.93509 34.4596V59.1708C6.93509 65.8175 12.2983 71.225 18.8906 71.225H28.0067C29.6574 71.225 30.9956 72.5742 30.9956 74.2386C30.9956 75.903 29.6574 77.2521 28.0067 77.2521ZM31.145 9.14566C31.145 4.16063 27.1226 0.10498 22.1784 0.10498C17.2342 0.10498 13.2117 4.16063 13.2117 9.14566C13.2117 10.8101 14.5499 12.1592 16.2006 12.1592C17.8514 12.1592 19.1895 10.8101 19.1895 9.14566C19.1895 7.48399 20.5303 6.1321 22.1784 6.1321C23.8264 6.1321 25.1673 7.48399 25.1673 9.14566C25.1673 10.8101 26.5054 12.1592 28.1561 12.1592C29.8069 12.1592 31.145 10.8101 31.145 9.14566ZM65.5171 9.14566C65.5171 4.16063 61.4947 0.10498 56.5505 0.10498C51.6063 0.10498 47.5838 4.16063 47.5838 9.14566C47.5838 10.8101 48.922 12.1592 50.5727 12.1592C52.2235 12.1592 53.5616 10.8101 53.5616 9.14566C53.5616 7.48399 54.9024 6.1321 56.5505 6.1321C58.1985 6.1321 59.5394 7.48399 59.5394 9.14566C59.5394 10.8101 60.8775 12.1592 62.5282 12.1592C64.179 12.1592 65.5171 10.8101 65.5171 9.14566ZM77.4726 68.0608V60.1014C77.4726 55.0185 73.3714 50.8835 68.3302 50.8835H60.436C58.7853 50.8835 57.4471 52.2327 57.4471 53.897C57.4471 55.5614 58.7853 56.9106 60.436 56.9106H68.3302C70.0752 56.9106 71.4949 58.342 71.4949 60.1014V68.0608C71.4949 69.7252 72.833 71.0743 74.4837 71.0743C76.1345 71.0743 77.4726 69.7252 77.4726 68.0608ZM67.0795 66.223C68.2195 65.0193 68.1759 63.1118 66.9821 61.9622C65.7884 60.8129 63.8964 60.8569 62.7563 62.0605C57.24 67.8846 49.4954 71.225 41.5082 71.225H40.1116C38.4609 71.225 37.1228 72.5742 37.1228 74.2386C37.1228 75.903 38.4609 77.2521 40.1116 77.2521H41.5082C51.1206 77.2521 60.4409 73.2322 67.0795 66.223ZM20.5345 30.5419C18.4711 30.5419 16.7984 32.2285 16.7984 34.3089C16.7984 36.3893 18.4711 38.0758 20.5345 38.0758C22.5979 38.0758 24.2706 36.3893 24.2706 34.3089C24.2706 32.2285 22.5979 30.5419 20.5345 30.5419ZM33.3867 30.5419C31.3233 30.5419 29.6506 32.2285 29.6506 34.3089C29.6506 36.3893 31.3233 38.0758 33.3867 38.0758C35.45 38.0758 37.1228 36.3893 37.1228 34.3089C37.1228 32.2285 35.45 30.5419 33.3867 30.5419ZM46.2388 30.5419C44.1755 30.5419 42.5027 32.2285 42.5027 34.3089C42.5027 36.3893 44.1755 38.0758 46.2388 38.0758C48.3022 38.0758 49.9749 36.3893 49.9749 34.3089C49.9749 32.2285 48.3022 30.5419 46.2388 30.5419ZM59.091 30.5419C57.0277 30.5419 55.3549 32.2285 55.3549 34.3089C55.3549 36.3893 57.0277 38.0758 59.091 38.0758C61.1544 38.0758 62.8271 36.3893 62.8271 34.3089C62.8271 32.2285 61.1544 30.5419 59.091 30.5419ZM20.5345 43.5003C18.4711 43.5003 16.7984 45.1868 16.7984 47.2672C16.7984 49.3476 18.4711 51.0342 20.5345 51.0342C22.5979 51.0342 24.2706 49.3476 24.2706 47.2672C24.2706 45.1868 22.5979 43.5003 20.5345 43.5003ZM20.5345 56.4586C18.4711 56.4586 16.7984 58.1451 16.7984 60.2255C16.7984 62.3059 18.4711 63.9925 20.5345 63.9925C22.5979 63.9925 24.2706 62.3059 24.2706 60.2255C24.2706 58.1451 22.5979 56.4586 20.5345 56.4586ZM33.3867 43.5003C31.3233 43.5003 29.6506 45.1868 29.6506 47.2672C29.6506 49.3476 31.3233 51.0342 33.3867 51.0342C35.45 51.0342 37.1228 49.3476 37.1228 47.2672C37.1228 45.1868 35.45 43.5003 33.3867 43.5003ZM33.3867 56.4586C31.3233 56.4586 29.6506 58.1451 29.6506 60.2255C29.6506 62.3059 31.3233 63.9925 33.3867 63.9925C35.45 63.9925 37.1228 62.3059 37.1228 60.2255C37.1228 58.1451 35.45 56.4586 33.3867 56.4586ZM46.2388 43.5003C44.1755 43.5003 42.5027 45.1868 42.5027 47.2672C42.5027 49.3476 44.1755 51.0342 46.2388 51.0342C48.3022 51.0342 49.9749 49.3476 49.9749 47.2672C49.9749 45.1868 48.3022 43.5003 46.2388 43.5003Z" fill="white"/>
</g>
<defs>
<clipPath id="clip0_8_1074">
<rect width="76.5153" height="77.1472" fill="white" transform="translate(0.957336 0.10498)"/>
</clipPath>
</defs>
</svg>
