<svg width="76" height="78" viewBox="0 0 76 78" fill="none" xmlns="http://www.w3.org/2000/svg">
<g id="002-gantt chart" clip-path="url(#clip0_8_1076)">
<path id="Vector" d="M57.9642 77.2521H17.9506C8.21666 77.2521 0.297493 69.1408 0.297493 59.1708V18.1863C0.297493 8.21628 8.21666 0.10498 17.9506 0.10498H57.9642C67.6981 0.10498 75.6172 8.21628 75.6172 18.1863V59.1708C75.6172 69.1408 67.6981 77.2521 57.9642 77.2521ZM17.9506 6.1321C11.4613 6.1321 6.18185 11.5396 6.18185 18.1863V59.1708C6.18185 65.8175 11.4613 71.225 17.9506 71.225H57.9642C64.4534 71.225 69.7329 65.8175 69.7329 59.1708V18.1863C69.7329 11.5396 64.4534 6.1321 57.9642 6.1321H17.9506ZM62.6717 38.6786C62.6717 37.0142 61.3544 35.665 59.7295 35.665H38.9871C37.3622 35.665 36.0449 37.0142 36.0449 38.6786C36.0449 40.3429 37.3622 41.6921 38.9871 41.6921H59.7295C61.3544 41.6921 62.6717 40.3429 62.6717 38.6786ZM52.374 27.0763C52.374 25.412 51.0568 24.0628 49.4319 24.0628H21.9225C20.2975 24.0628 18.9803 25.412 18.9803 27.0763C18.9803 28.7407 20.2975 30.0899 21.9225 30.0899H49.4319C51.0568 30.0899 52.374 28.7407 52.374 27.0763ZM31.3375 15.3235C31.3375 13.6591 30.0203 12.3099 28.3953 12.3099H16.0381C14.4132 12.3099 13.096 13.6591 13.096 15.3235C13.096 16.9879 14.4132 18.337 16.0381 18.337H28.3953C30.0203 18.337 31.3375 16.9879 31.3375 15.3235ZM58.2584 50.4314C58.2584 48.7671 56.9412 47.4179 55.3162 47.4179H30.749C29.1241 47.4179 27.8069 48.7671 27.8069 50.4314C27.8069 52.0958 29.1241 53.445 30.749 53.445H55.3162C56.9412 53.445 58.2584 52.0958 58.2584 50.4314ZM62.2303 62.1843C62.2303 60.5199 60.9131 59.1708 59.2881 59.1708H52.8154C51.1904 59.1708 49.8732 60.5199 49.8732 62.1843C49.8732 63.8487 51.1904 65.1979 52.8154 65.1979H59.2881C60.9131 65.1979 62.2303 63.8487 62.2303 62.1843Z" fill="white"/>
</g>
<defs>
<clipPath id="clip0_8_1076">
<rect width="75.3197" height="77.1472" fill="white" transform="translate(0.297493 0.10498)"/>
</clipPath>
</defs>
</svg>
