<svg width="60" height="76" viewBox="0 0 60 76" fill="none" xmlns="http://www.w3.org/2000/svg">
<g id="Group">
<g id="Group_2">
<path id="Vector" d="M56.3858 75.2129C54.7322 75.2129 53.3917 73.9023 53.3917 72.2856C53.3917 60.8253 43.8554 51.5016 32.1338 51.5016H27.6427C15.921 51.5016 6.38475 60.8253 6.38475 72.2856C6.38475 73.9023 5.04431 75.2129 3.39068 75.2129C1.73705 75.2129 0.396606 73.9023 0.396606 72.2856C0.396606 57.597 12.6192 45.647 27.6427 45.647H32.1338C47.1573 45.647 59.3799 57.597 59.3799 72.2856C59.3799 73.9023 58.0394 75.2129 56.3858 75.2129Z" fill="white"/>
</g>
<g id="Group_3">
<path id="Vector_2" d="M29.5888 39.7927C18.445 39.7927 9.37878 30.9287 9.37878 20.0333C9.37878 9.138 18.445 0.273926 29.5888 0.273926C40.7326 0.273926 49.7988 9.138 49.7988 20.0333C49.7988 30.9287 40.7326 39.7927 29.5888 39.7927ZM29.5888 6.12857C21.7469 6.12857 15.3669 12.3662 15.3669 20.0333C15.3669 27.7004 21.7469 33.9381 29.5888 33.9381C37.4307 33.9381 43.8106 27.7004 43.8106 20.0333C43.8106 12.3662 37.4307 6.12857 29.5888 6.12857Z" fill="white"/>
</g>
</g>
</svg>
