<svg width="66" height="78" viewBox="0 0 66 78" fill="none" xmlns="http://www.w3.org/2000/svg">
<path id="Vector" d="M46.8294 77.2521H18.8129C8.73791 77.2521 0.541252 69.1408 0.541252 59.1708V18.1863C0.541252 8.21628 8.73791 0.10498 18.8129 0.10498H46.8294C56.9044 0.10498 65.101 8.21628 65.101 18.1863V59.1708C65.101 69.1408 56.9044 77.2521 46.8294 77.2521ZM18.8129 6.1321C12.0962 6.1321 6.6318 11.5396 6.6318 18.1863V59.1708C6.6318 65.8175 12.0962 71.225 18.8129 71.225H46.8294C53.546 71.225 59.0105 65.8175 59.0105 59.1708V18.1863C59.0105 11.5396 53.546 6.1321 46.8294 6.1321H18.8129ZM52.7677 27.8297C52.7677 26.1654 51.4043 24.8162 49.7224 24.8162H44.5454C42.0267 24.8162 39.9775 22.7884 39.9775 20.2958V15.1728C39.9775 13.5084 38.6142 12.1592 36.9323 12.1592C35.2504 12.1592 33.887 13.5084 33.887 15.1728V20.2958C33.887 26.1117 38.6684 30.8433 44.5454 30.8433H49.7224C51.4043 30.8433 52.7677 29.4941 52.7677 27.8297ZM41.6524 59.9242V43.6509C41.6524 41.9865 40.2891 40.6374 38.6072 40.6374C36.9253 40.6374 35.5619 41.9865 35.5619 43.6509V59.9242C35.5619 61.5886 36.9253 62.9377 38.6072 62.9377C40.2891 62.9377 41.6524 61.5886 41.6524 59.9242ZM52.9199 59.9242V52.6916C52.9199 51.0272 51.5566 49.6781 49.8747 49.6781C48.1928 49.6781 46.8294 51.0272 46.8294 52.6916V59.9242C46.8294 61.5886 48.1928 62.9377 49.8747 62.9377C51.5566 62.9377 52.9199 61.5886 52.9199 59.9242ZM18.8129 59.9242V48.1713C18.8129 46.5069 17.4495 45.1577 15.7676 45.1577C14.0857 45.1577 12.7223 46.5069 12.7223 48.1713V59.9242C12.7223 61.5886 14.0857 62.9377 15.7676 62.9377C17.4495 62.9377 18.8129 61.5886 18.8129 59.9242ZM30.2327 59.9242V34.6103C30.2327 32.9459 28.8693 31.5967 27.1874 31.5967C25.5055 31.5967 24.1421 32.9459 24.1421 34.6103V59.9242C24.1421 61.5886 25.5055 62.9377 27.1874 62.9377C28.8693 62.9377 30.2327 61.5886 30.2327 59.9242Z" fill="white"/>
</svg>
